<?xml version="1.0" encoding="utf-8"?>
<!-- Generator: Adobe Illustrator 25.2.1, SVG Export Plug-In . SVG Version: 6.00 Build 0)  -->
<svg version="1.1" id="Capa_1" xmlns="http://www.w3.org/2000/svg" xmlns:xlink="http://www.w3.org/1999/xlink" x="0px" y="0px"
	 viewBox="0 0 201 75" style="enable-background:new 0 0 201 75;" xml:space="preserve">
<style type="text/css">
	.st0{fill:#FFFFFF;}
</style>
<desc>Created with Sketch.</desc>
<g id="path5_fill-link">
	
		<g transform="translate(100.787457, 38.582730) rotate(-0.395765) translate(-100.787457, -38.582730) translate(0.287471, 1.582735)">
		<path id="path5_fill" class="st0" d="M60.3,48.9c0-3.4,1.4-4.8,4.8-4.8h2c3.2,0,6.3-1.8,6.3-5.7c0-3.9-3.1-5.7-6.3-5.7h-2
			c-3.4,0-4.8-1.4-4.8-4.8l0-21.4c0-3.5-1.9-6.9-6.2-6.9c-4.4,0-6.3,3.4-6.3,6.9l0,21.4c0,3.4-1.4,4.8-4.8,4.8l-25.3,0
			c-3.4,0-4.8-1.4-4.8-4.8l0-21.4c0-3.5-1.9-6.9-6.3-6.9C2.3-0.4,0.4,3,0.4,6.5l0,23.1C0.4,39.8,4.6,44,14.8,44L43,44.1
			c3.4,0,4.8,1.4,4.8,4.8l0,16.6c0,3.5,1.9,6.9,6.3,6.9c4.3,0,6.2-3.4,6.2-6.9L60.3,48.9z M108.8,71c17,0,23.9-7,23.9-23.9V24.9
			C132.7,8,125.8,1,108.8,1L91.3,1c-17,0-23.9,7-23.9,23.9l0,22.2C67.4,64,74.3,71,91.3,71L108.8,71z M91.8,59.6
			c-8.4,0-11.9-3.5-11.9-11.8l0-23.6c0-8.3,3.5-11.8,11.9-11.8l16.5,0c8.4,0,11.9,3.5,11.9,11.8l0,23.6c0,8.3-3.5,11.8-11.9,11.8
			L91.8,59.6z M187.5,48.9c0-3.4,1.4-4.8,4.8-4.8h2c3.2,0,6.3-1.8,6.3-5.7s-3.1-5.7-6.3-5.7h-2c-3.4,0-4.8-1.4-4.8-4.8V6.5
			c0-3.5-1.9-6.9-6.2-6.9c-4.4,0-6.3,3.4-6.3,6.9v21.4c0,3.4-1.4,4.8-4.8,4.8l-25.3,0c-3.4,0-4.8-1.4-4.8-4.8l0-21.4
			c0-3.5-1.9-6.9-6.3-6.9c-4.3,0-6.2,3.4-6.2,6.9l0,23.1c0,10.2,4.2,14.4,14.4,14.4l28.2,0.1c3.4,0,4.8,1.4,4.8,4.8v16.6
			c0,3.5,1.9,6.9,6.3,6.9c4.3,0,6.2-3.4,6.2-6.9V48.9z"/>
	</g>
</g>
</svg>
